<mxfile host="app.diagrams.net" modified="2023-11-30T19:26:02.733Z" agent="Mozilla/5.0 (Windows NT 10.0; Win64; x64) AppleWebKit/537.36 (KHTML, like Gecko) Chrome/119.0.0.0 Safari/537.36" etag="LNyQyhWIc6ldalZNwfsX" version="22.1.5" type="github">
  <diagram id="FmJ9zUSyJj8XHncLjHtH" name="Page-1">
    <mxGraphModel dx="2954" dy="2074" grid="1" gridSize="10" guides="1" tooltips="1" connect="1" arrows="1" fold="1" page="1" pageScale="1" pageWidth="827" pageHeight="1169" background="#ffffff" math="0" shadow="1">
      <root>
        <mxCell id="0" />
        <mxCell id="1" parent="0" />
        <mxCell id="faD0mFVA-UTQUyw-2g-3-2" value="&lt;p style=&quot;margin: 0px ; margin-top: 4px ; text-align: center&quot;&gt;&lt;b&gt;User&lt;/b&gt;&lt;/p&gt;&lt;hr size=&quot;1&quot;&gt;&lt;p style=&quot;margin: 0px ; margin-left: 4px&quot;&gt;-username: String&lt;/p&gt;&lt;p style=&quot;margin: 0px ; margin-left: 4px&quot;&gt;-password: String&amp;nbsp;&lt;/p&gt;&lt;p style=&quot;margin: 0px ; margin-left: 4px&quot;&gt;-loginStatus: String&lt;/p&gt;&lt;p style=&quot;margin: 0px ; margin-left: 4px&quot;&gt;&lt;br&gt;&lt;/p&gt;&lt;hr size=&quot;1&quot;&gt;&lt;p style=&quot;margin: 0px ; margin-left: 4px&quot;&gt;+ verifyLogin() : bool&lt;/p&gt;&lt;p style=&quot;margin: 0px ; margin-left: 4px&quot;&gt;+validateUsername(): boolean&lt;br&gt;&lt;/p&gt;&lt;p style=&quot;margin: 0px ; margin-left: 4px&quot;&gt;+validatePassword(): boolean&lt;br&gt;&lt;/p&gt;" style="verticalAlign=top;align=left;overflow=fill;fontSize=12;fontFamily=Helvetica;html=1;" parent="1" vertex="1">
          <mxGeometry x="310" y="-1010" width="170" height="170" as="geometry" />
        </mxCell>
        <mxCell id="lR8iMM8wQA9TuE7MrL-h-13" style="edgeStyle=orthogonalEdgeStyle;rounded=0;orthogonalLoop=1;jettySize=auto;html=1;endArrow=ERoneToMany;endFill=0;" parent="1" source="faD0mFVA-UTQUyw-2g-3-4" target="faD0mFVA-UTQUyw-2g-3-15" edge="1">
          <mxGeometry relative="1" as="geometry" />
        </mxCell>
        <mxCell id="w9zlK4fNYG2lweTPWd4w-2" style="edgeStyle=orthogonalEdgeStyle;rounded=0;orthogonalLoop=1;jettySize=auto;html=1;exitX=0.5;exitY=0;exitDx=0;exitDy=0;entryX=0;entryY=0.25;entryDx=0;entryDy=0;endArrow=block;endFill=0;" parent="1" source="faD0mFVA-UTQUyw-2g-3-4" target="faD0mFVA-UTQUyw-2g-3-2" edge="1">
          <mxGeometry relative="1" as="geometry" />
        </mxCell>
        <mxCell id="faD0mFVA-UTQUyw-2g-3-4" value="&lt;p style=&quot;margin: 0px ; margin-top: 4px ; text-align: center&quot;&gt;&lt;b&gt;Admin&lt;/b&gt;&lt;/p&gt;&lt;hr size=&quot;1&quot;&gt;&lt;p style=&quot;margin: 0px ; margin-left: 4px&quot;&gt;-adminID : int&lt;/p&gt;&lt;p style=&quot;margin: 0px ; margin-left: 4px&quot;&gt;-adminName: string&lt;/p&gt;&lt;p style=&quot;margin: 0px ; margin-left: 4px&quot;&gt;-adminSurname: String&amp;nbsp;&lt;/p&gt;&lt;hr size=&quot;1&quot;&gt;&lt;p style=&quot;margin: 0px ; margin-left: 4px&quot;&gt;+addNewEmployee()&lt;/p&gt;&lt;p style=&quot;margin: 0px ; margin-left: 4px&quot;&gt;+updateEmployee()&lt;/p&gt;&lt;p style=&quot;margin: 0px ; margin-left: 4px&quot;&gt;+deleteEmployee()&lt;/p&gt;&lt;p style=&quot;margin: 0px ; margin-left: 4px&quot;&gt;+approveDaysOff()&lt;/p&gt;&lt;p style=&quot;margin: 0px ; margin-left: 4px&quot;&gt;+declineDaysOff()&lt;/p&gt;&lt;p style=&quot;margin: 0px ; margin-left: 4px&quot;&gt;+addNewAccount()&lt;/p&gt;&lt;p style=&quot;margin: 0px ; margin-left: 4px&quot;&gt;+updateAccount()&lt;/p&gt;&lt;p style=&quot;margin: 0px ; margin-left: 4px&quot;&gt;+deleteAccount()&lt;/p&gt;&lt;p style=&quot;margin: 0px ; margin-left: 4px&quot;&gt;+orderDeliveries()&lt;/p&gt;&lt;p style=&quot;margin: 0px ; margin-left: 4px&quot;&gt;+checkCameras()&lt;br&gt;&lt;/p&gt;" style="verticalAlign=top;align=left;overflow=fill;fontSize=12;fontFamily=Helvetica;html=1;" parent="1" vertex="1">
          <mxGeometry x="-270" y="-740" width="160" height="240" as="geometry" />
        </mxCell>
        <mxCell id="lR8iMM8wQA9TuE7MrL-h-14" style="edgeStyle=orthogonalEdgeStyle;rounded=0;orthogonalLoop=1;jettySize=auto;html=1;endArrow=ERoneToMany;endFill=0;" parent="1" source="faD0mFVA-UTQUyw-2g-3-5" target="faD0mFVA-UTQUyw-2g-3-17" edge="1">
          <mxGeometry relative="1" as="geometry">
            <Array as="points">
              <mxPoint x="435" y="-310" />
              <mxPoint x="190" y="-310" />
            </Array>
          </mxGeometry>
        </mxCell>
        <mxCell id="lR8iMM8wQA9TuE7MrL-h-15" style="edgeStyle=orthogonalEdgeStyle;rounded=0;orthogonalLoop=1;jettySize=auto;html=1;entryX=0;entryY=0.25;entryDx=0;entryDy=0;exitX=0.75;exitY=1;exitDx=0;exitDy=0;endArrow=ERoneToMany;endFill=0;" parent="1" source="faD0mFVA-UTQUyw-2g-3-5" target="faD0mFVA-UTQUyw-2g-3-12" edge="1">
          <mxGeometry relative="1" as="geometry">
            <mxPoint x="435" y="-250" as="targetPoint" />
            <Array as="points">
              <mxPoint x="478" y="-280" />
              <mxPoint x="470" y="-280" />
              <mxPoint x="470" y="-200" />
              <mxPoint x="380" y="-200" />
              <mxPoint x="380" y="-127" />
            </Array>
          </mxGeometry>
        </mxCell>
        <mxCell id="lR8iMM8wQA9TuE7MrL-h-16" style="edgeStyle=orthogonalEdgeStyle;rounded=0;orthogonalLoop=1;jettySize=auto;html=1;entryX=0.75;entryY=0;entryDx=0;entryDy=0;endArrow=ERoneToMany;endFill=0;" parent="1" source="faD0mFVA-UTQUyw-2g-3-5" target="faD0mFVA-UTQUyw-2g-3-15" edge="1">
          <mxGeometry relative="1" as="geometry">
            <Array as="points">
              <mxPoint x="435" y="-370" />
              <mxPoint x="10" y="-370" />
            </Array>
          </mxGeometry>
        </mxCell>
        <mxCell id="lR8iMM8wQA9TuE7MrL-h-18" style="edgeStyle=orthogonalEdgeStyle;rounded=0;orthogonalLoop=1;jettySize=auto;html=1;endArrow=ERoneToMany;endFill=0;" parent="1" source="faD0mFVA-UTQUyw-2g-3-5" target="faD0mFVA-UTQUyw-2g-3-22" edge="1">
          <mxGeometry relative="1" as="geometry">
            <Array as="points">
              <mxPoint x="435" y="-220" />
              <mxPoint x="300" y="-220" />
            </Array>
          </mxGeometry>
        </mxCell>
        <mxCell id="w9zlK4fNYG2lweTPWd4w-5" style="edgeStyle=orthogonalEdgeStyle;rounded=0;orthogonalLoop=1;jettySize=auto;html=1;exitX=0.5;exitY=0;exitDx=0;exitDy=0;entryX=1.011;entryY=0.394;entryDx=0;entryDy=0;endArrow=block;endFill=0;entryPerimeter=0;" parent="1" source="faD0mFVA-UTQUyw-2g-3-5" target="faD0mFVA-UTQUyw-2g-3-9" edge="1">
          <mxGeometry relative="1" as="geometry" />
        </mxCell>
        <mxCell id="faD0mFVA-UTQUyw-2g-3-5" value="&lt;p style=&quot;margin: 0px ; margin-top: 4px ; text-align: center&quot;&gt;&lt;b&gt;Economist&lt;/b&gt;&lt;/p&gt;&lt;hr size=&quot;1&quot;&gt;&lt;p style=&quot;margin: 0px ; margin-left: 4px&quot;&gt;-economistID : int&lt;/p&gt;&lt;p style=&quot;margin: 0px ; margin-left: 4px&quot;&gt;-economistName: string&lt;/p&gt;&lt;p style=&quot;margin: 0px ; margin-left: 4px&quot;&gt;-economistSurname: string&amp;nbsp;&lt;/p&gt;&lt;hr size=&quot;1&quot;&gt;&lt;p style=&quot;margin: 0px ; margin-left: 4px&quot;&gt;+employeeClockIn()&lt;/p&gt;&lt;p style=&quot;margin: 0px ; margin-left: 4px&quot;&gt;+employeeCalculatePayment&lt;/p&gt;&lt;p style=&quot;margin: 0px ; margin-left: 4px&quot;&gt;+employeeDaysOffRequest()&lt;/p&gt;&lt;p style=&quot;margin: 0px ; margin-left: 4px&quot;&gt;+getInventory()&lt;/p&gt;&lt;p style=&quot;margin: 0px ; margin-left: 4px&quot;&gt;+getPurchaseOrder()&lt;/p&gt;" style="verticalAlign=top;align=left;overflow=fill;fontSize=12;fontFamily=Helvetica;html=1;" parent="1" vertex="1">
          <mxGeometry x="260" y="-600" width="170" height="180" as="geometry" />
        </mxCell>
        <mxCell id="w9zlK4fNYG2lweTPWd4w-6" style="edgeStyle=orthogonalEdgeStyle;rounded=0;orthogonalLoop=1;jettySize=auto;html=1;exitX=0.5;exitY=0;exitDx=0;exitDy=0;entryX=1;entryY=0.25;entryDx=0;entryDy=0;endArrow=block;endFill=0;" parent="1" source="faD0mFVA-UTQUyw-2g-3-6" target="faD0mFVA-UTQUyw-2g-3-9" edge="1">
          <mxGeometry relative="1" as="geometry" />
        </mxCell>
        <mxCell id="faD0mFVA-UTQUyw-2g-3-6" value="&lt;p style=&quot;margin: 0px ; margin-top: 4px ; text-align: center&quot;&gt;&lt;b&gt;TeamLeader&lt;/b&gt;&lt;/p&gt;&lt;hr size=&quot;1&quot;&gt;&lt;p style=&quot;margin: 0px ; margin-left: 4px&quot;&gt;-TeamLeaderID : int&lt;/p&gt;&lt;p style=&quot;margin: 0px ; margin-left: 4px&quot;&gt;-TeamLeaderName: string&lt;/p&gt;&lt;p style=&quot;margin: 0px ; margin-left: 4px&quot;&gt;-TeamLeaderSurname: string&amp;nbsp;&lt;/p&gt;&lt;hr size=&quot;1&quot;&gt;&lt;p style=&quot;margin: 0px ; margin-left: 4px&quot;&gt;+addNewProject()&lt;/p&gt;&lt;p style=&quot;margin: 0px ; margin-left: 4px&quot;&gt;+updateProject()&lt;/p&gt;&lt;p style=&quot;margin: 0px ; margin-left: 4px&quot;&gt;+deleteProject()&lt;/p&gt;&lt;br&gt;&lt;p style=&quot;margin: 0px ; margin-left: 4px&quot;&gt;&lt;br&gt;&lt;/p&gt;" style="verticalAlign=top;align=left;overflow=fill;fontSize=12;fontFamily=Helvetica;html=1;" parent="1" vertex="1">
          <mxGeometry x="570" y="-690" width="160" height="150" as="geometry" />
        </mxCell>
        <mxCell id="lR8iMM8wQA9TuE7MrL-h-20" style="edgeStyle=orthogonalEdgeStyle;rounded=0;orthogonalLoop=1;jettySize=auto;html=1;entryX=0.75;entryY=0;entryDx=0;entryDy=0;endArrow=ERoneToMany;endFill=0;" parent="1" source="faD0mFVA-UTQUyw-2g-3-7" target="faD0mFVA-UTQUyw-2g-3-16" edge="1">
          <mxGeometry relative="1" as="geometry">
            <mxPoint x="1020" y="-200" as="targetPoint" />
          </mxGeometry>
        </mxCell>
        <mxCell id="lR8iMM8wQA9TuE7MrL-h-21" style="edgeStyle=orthogonalEdgeStyle;rounded=0;orthogonalLoop=1;jettySize=auto;html=1;entryX=0.5;entryY=0;entryDx=0;entryDy=0;endArrow=ERoneToMany;endFill=0;" parent="1" source="faD0mFVA-UTQUyw-2g-3-7" target="faD0mFVA-UTQUyw-2g-3-19" edge="1">
          <mxGeometry relative="1" as="geometry">
            <Array as="points">
              <mxPoint x="1140" y="-225" />
              <mxPoint x="1190" y="-225" />
            </Array>
          </mxGeometry>
        </mxCell>
        <mxCell id="w9zlK4fNYG2lweTPWd4w-4" style="edgeStyle=orthogonalEdgeStyle;rounded=0;orthogonalLoop=1;jettySize=auto;html=1;exitX=0.5;exitY=0;exitDx=0;exitDy=0;entryX=1;entryY=0.5;entryDx=0;entryDy=0;endArrow=block;endFill=0;" parent="1" source="faD0mFVA-UTQUyw-2g-3-7" target="faD0mFVA-UTQUyw-2g-3-2" edge="1">
          <mxGeometry relative="1" as="geometry" />
        </mxCell>
        <mxCell id="faD0mFVA-UTQUyw-2g-3-7" value="&lt;p style=&quot;margin: 0px ; margin-top: 4px ; text-align: center&quot;&gt;&lt;b&gt;Manager&lt;/b&gt;&lt;/p&gt;&lt;hr size=&quot;1&quot;&gt;&lt;p style=&quot;margin: 0px ; margin-left: 4px&quot;&gt;-managerID : int&lt;/p&gt;&lt;p style=&quot;margin: 0px ; margin-left: 4px&quot;&gt;-managerName: string&lt;/p&gt;&lt;p style=&quot;margin: 0px ; margin-left: 4px&quot;&gt;-managerSurname: string&amp;nbsp;&lt;/p&gt;&lt;hr size=&quot;1&quot;&gt;&lt;p style=&quot;margin: 0px ; margin-left: 4px&quot;&gt;+addNewSupplier()&lt;/p&gt;&lt;p style=&quot;margin: 0px ; margin-left: 4px&quot;&gt;+updateSupplier()&lt;/p&gt;&lt;p style=&quot;margin: 0px ; margin-left: 4px&quot;&gt;+deleteSupplier()&lt;/p&gt;&lt;p style=&quot;margin: 0px ; margin-left: 4px&quot;&gt;+addnewOrder()&lt;/p&gt;&lt;p style=&quot;margin: 0px 0px 0px 4px&quot;&gt;+updateOrder()&lt;/p&gt;&lt;p style=&quot;margin: 0px 0px 0px 4px&quot;&gt;+deleteOrder()&lt;/p&gt;&lt;p style=&quot;margin: 0px 0px 0px 4px&quot;&gt;+addnewToDo()&lt;/p&gt;&lt;p style=&quot;margin: 0px 0px 0px 4px&quot;&gt;+updateToDo()&lt;/p&gt;&lt;p style=&quot;margin: 0px 0px 0px 4px&quot;&gt;+deleteToDo()&lt;/p&gt;" style="verticalAlign=top;align=left;overflow=fill;fontSize=12;fontFamily=Helvetica;html=1;" parent="1" vertex="1">
          <mxGeometry x="844" y="-680" width="160" height="230" as="geometry" />
        </mxCell>
        <mxCell id="w9zlK4fNYG2lweTPWd4w-7" style="edgeStyle=orthogonalEdgeStyle;rounded=0;orthogonalLoop=1;jettySize=auto;html=1;exitX=0;exitY=0.25;exitDx=0;exitDy=0;entryX=1;entryY=0.5;entryDx=0;entryDy=0;endArrow=diamond;endFill=1;" parent="1" source="faD0mFVA-UTQUyw-2g-3-9" target="faD0mFVA-UTQUyw-2g-3-4" edge="1">
          <mxGeometry relative="1" as="geometry" />
        </mxCell>
        <mxCell id="faD0mFVA-UTQUyw-2g-3-9" value="&lt;p style=&quot;margin: 0px ; margin-top: 4px ; text-align: center&quot;&gt;&lt;b&gt;Employee&lt;/b&gt;&lt;/p&gt;&lt;hr size=&quot;1&quot;&gt;&lt;p style=&quot;margin: 0px ; margin-left: 4px&quot;&gt;&lt;span&gt;&amp;nbsp;+employeeID: int&lt;/span&gt;&lt;/p&gt;&lt;p style=&quot;margin: 0px ; margin-left: 4px&quot;&gt;&lt;span&gt;+firstName: string&lt;/span&gt;&lt;/p&gt;&lt;p style=&quot;margin: 0px ; margin-left: 4px&quot;&gt;&lt;span&gt;+lastName: string&lt;/span&gt;&lt;/p&gt;&lt;p style=&quot;margin: 0px ; margin-left: 4px&quot;&gt;+phoneNumber: int&lt;/p&gt;&lt;p style=&quot;margin: 0px ; margin-left: 4px&quot;&gt;+salary: int&amp;nbsp;&lt;/p&gt;&lt;hr size=&quot;1&quot;&gt;&amp;nbsp;+getFirstName() : string&lt;p style=&quot;margin: 0px ; margin-left: 4px&quot;&gt;+setFirstName()&lt;br&gt;&lt;/p&gt;&lt;p style=&quot;margin: 0px ; margin-left: 4px&quot;&gt;+getLastName() : string&amp;nbsp;&lt;/p&gt;&lt;p style=&quot;margin: 0px ; margin-left: 4px&quot;&gt;+setLastName()&lt;/p&gt;&lt;p style=&quot;margin: 0px ; margin-left: 4px&quot;&gt;+getUsername() : string&lt;/p&gt;&lt;p style=&quot;margin: 0px ; margin-left: 4px&quot;&gt;+setUsername() &lt;br&gt;&lt;/p&gt;&lt;p style=&quot;margin: 0px ; margin-left: 4px&quot;&gt;+getPassword() : string&lt;/p&gt;&lt;p style=&quot;margin: 0px ; margin-left: 4px&quot;&gt;+setPassword() &lt;br&gt;&lt;/p&gt;&lt;p style=&quot;margin: 0px ; margin-left: 4px&quot;&gt;+getEmployeeID() : int&lt;/p&gt;&lt;p style=&quot;margin: 0px ; margin-left: 4px&quot;&gt;+setEmployeeID()&lt;/p&gt;&lt;p style=&quot;margin: 0px ; margin-left: 4px&quot;&gt;&lt;/p&gt;&lt;p style=&quot;margin: 0px ; margin-left: 4px&quot;&gt;+getPhoneNumer() : int&lt;/p&gt;&lt;p style=&quot;margin: 0px ; margin-left: 4px&quot;&gt;+setPhoneNumer()&lt;br&gt;&lt;/p&gt;&lt;p style=&quot;margin: 0px ; margin-left: 4px&quot;&gt;+getSalary() : int &lt;br&gt;&lt;/p&gt;&lt;p style=&quot;margin: 0px ; margin-left: 4px&quot;&gt;+getAuthority() : string&lt;/p&gt;&lt;p style=&quot;margin: 0px ; margin-left: 4px&quot;&gt;&lt;br&gt;&lt;/p&gt;&lt;p style=&quot;margin: 0px ; margin-left: 4px&quot;&gt;&lt;br&gt;&lt;/p&gt;" style="verticalAlign=top;align=left;overflow=fill;fontSize=12;fontFamily=Helvetica;html=1;" parent="1" vertex="1">
          <mxGeometry x="40" y="-870" width="160" height="330" as="geometry" />
        </mxCell>
        <mxCell id="lR8iMM8wQA9TuE7MrL-h-26" style="edgeStyle=orthogonalEdgeStyle;rounded=0;orthogonalLoop=1;jettySize=auto;html=1;entryX=0.5;entryY=0;entryDx=0;entryDy=0;endArrow=ERmandOne;endFill=0;exitX=0.5;exitY=0;exitDx=0;exitDy=0;" parent="1" source="faD0mFVA-UTQUyw-2g-3-12" target="faD0mFVA-UTQUyw-2g-3-16" edge="1">
          <mxGeometry relative="1" as="geometry">
            <Array as="points">
              <mxPoint x="490" y="-200" />
              <mxPoint x="990" y="-200" />
            </Array>
            <mxPoint x="570" y="-230" as="sourcePoint" />
          </mxGeometry>
        </mxCell>
        <mxCell id="faD0mFVA-UTQUyw-2g-3-12" value="&lt;p style=&quot;margin: 0px ; margin-top: 4px ; text-align: center&quot;&gt;&lt;b&gt;Request&lt;/b&gt;&lt;/p&gt;&lt;hr size=&quot;1&quot;&gt;&lt;p style=&quot;margin: 0px ; margin-left: 4px&quot;&gt;&lt;span&gt;+employeeID: int&amp;nbsp;&lt;/span&gt;&lt;/p&gt;&lt;p style=&quot;margin: 0px ; margin-left: 4px&quot;&gt;+requestID: int&amp;nbsp;&lt;br&gt;&lt;/p&gt;&lt;p style=&quot;margin: 0px ; margin-left: 4px&quot;&gt;&lt;span&gt;+date: date&lt;/span&gt;&lt;/p&gt;&lt;p style=&quot;margin: 0px ; margin-left: 4px&quot;&gt;&lt;span&gt;+message: text&lt;br&gt;&lt;/span&gt;&lt;/p&gt;&lt;p style=&quot;margin: 0px ; margin-left: 4px&quot;&gt;&lt;span&gt;+done: boolean&amp;nbsp;&lt;/span&gt;&lt;/p&gt;&lt;hr size=&quot;1&quot;&gt;&lt;p style=&quot;margin: 0px ; margin-left: 4px&quot;&gt;&lt;span&gt;+getRequestID() : int&amp;nbsp;&lt;/span&gt;&lt;br&gt;&lt;/p&gt;&lt;p style=&quot;margin: 0px ; margin-left: 4px&quot;&gt;+getEmployeeID (): int&lt;/p&gt;&lt;p style=&quot;margin: 0px ; margin-left: 4px&quot;&gt;+getDate() : date&lt;/p&gt;&lt;p style=&quot;margin: 0px ; margin-left: 4px&quot;&gt;+getMessage() : text&lt;/p&gt;&lt;p style=&quot;margin: 0px ; margin-left: 4px&quot;&gt;+getDone() : boolean&lt;/p&gt;&lt;p style=&quot;margin: 0px ; margin-left: 4px&quot;&gt;+getResponse() : object&lt;/p&gt;&lt;p style=&quot;margin: 0px ; margin-left: 4px&quot;&gt;&lt;br&gt;&lt;/p&gt;&lt;p style=&quot;margin: 0px ; margin-left: 4px&quot;&gt;&lt;br&gt;&lt;/p&gt;&lt;p style=&quot;margin: 0px ; margin-left: 4px&quot;&gt;&lt;br&gt;&lt;/p&gt;" style="verticalAlign=top;align=left;overflow=fill;fontSize=12;fontFamily=Helvetica;html=1;" parent="1" vertex="1">
          <mxGeometry x="410" y="-180" width="160" height="210" as="geometry" />
        </mxCell>
        <mxCell id="faD0mFVA-UTQUyw-2g-3-13" value="&lt;pre style=&quot;box-sizing: inherit ; background-color: rgb(255 , 255 , 255)&quot;&gt;&lt;pre style=&quot;box-sizing: inherit&quot;&gt;&lt;br&gt;&lt;/pre&gt;&lt;/pre&gt;" style="text;html=1;align=center;verticalAlign=middle;resizable=0;points=[];autosize=1;" parent="1" vertex="1">
          <mxGeometry x="-285" y="671" width="20" height="40" as="geometry" />
        </mxCell>
        <mxCell id="faD0mFVA-UTQUyw-2g-3-15" value="&lt;p style=&quot;margin: 0px ; margin-top: 4px ; text-align: center&quot;&gt;&lt;b&gt;DaysOff&lt;/b&gt;&lt;/p&gt;&lt;hr size=&quot;1&quot;&gt;&lt;p style=&quot;margin: 0px ; margin-left: 4px&quot;&gt;+daysoffID:int&lt;/p&gt;&lt;p style=&quot;margin: 0px ; margin-left: 4px&quot;&gt;+employeeID: int&lt;/p&gt;&lt;p style=&quot;margin: 0px ; margin-left: 4px&quot;&gt;+dateOff: date&lt;/p&gt;&lt;p style=&quot;margin: 0px ; margin-left: 4px&quot;&gt;+approved: boolean&lt;/p&gt;&lt;hr size=&quot;1&quot;&gt;&lt;p style=&quot;margin: 0px ; margin-left: 4px&quot;&gt;&lt;span&gt;+getDaysOffID(): int&lt;/span&gt;&lt;br&gt;&lt;/p&gt;&lt;p style=&quot;margin: 0px ; margin-left: 4px&quot;&gt;&lt;span&gt;+setDaysOffI()&lt;br&gt;&lt;/span&gt;&lt;/p&gt;&lt;p style=&quot;margin: 0px ; margin-left: 4px&quot;&gt;+getEmployeeID(): int&lt;/p&gt;&lt;p style=&quot;margin: 0px ; margin-left: 4px&quot;&gt;+setEmployeeID()&lt;/p&gt;&lt;p style=&quot;margin: 0px ; margin-left: 4px&quot;&gt;+getDateOff(): date&lt;/p&gt;&lt;p style=&quot;margin: 0px ; margin-left: 4px&quot;&gt;+setDateOff()&lt;/p&gt;&lt;p style=&quot;margin: 0px ; margin-left: 4px&quot;&gt;+getMessage(): text&lt;/p&gt;&lt;p style=&quot;margin: 0px ; margin-left: 4px&quot;&gt;+setMessage()&lt;/p&gt;&lt;p style=&quot;margin: 0px ; margin-left: 4px&quot;&gt;+getApprove(): boolean&lt;/p&gt;&lt;p style=&quot;margin: 0px ; margin-left: 4px&quot;&gt;+setApprove()&lt;/p&gt;&lt;p style=&quot;margin: 0px ; margin-left: 4px&quot;&gt;&lt;br&gt;&lt;/p&gt;&lt;p style=&quot;margin: 0px ; margin-left: 4px&quot;&gt;&lt;br&gt;&lt;/p&gt;&lt;p style=&quot;margin: 0px ; margin-left: 4px&quot;&gt;&lt;br&gt;&lt;/p&gt;" style="verticalAlign=top;align=left;overflow=fill;fontSize=12;fontFamily=Helvetica;html=1;" parent="1" vertex="1">
          <mxGeometry x="-110" y="-200" width="160" height="260" as="geometry" />
        </mxCell>
        <mxCell id="faD0mFVA-UTQUyw-2g-3-16" value="&lt;p style=&quot;margin: 0px ; margin-top: 4px ; text-align: center&quot;&gt;&lt;b&gt;ToDoList&lt;/b&gt;&lt;/p&gt;&lt;hr size=&quot;1&quot;&gt;&lt;p style=&quot;margin: 0px ; margin-left: 4px&quot;&gt;+date: date&lt;span&gt;&lt;br&gt;&lt;/span&gt;&lt;/p&gt;&lt;p style=&quot;margin: 0px ; margin-left: 4px&quot;&gt;&lt;span&gt;+employeeID: int&amp;nbsp;&lt;/span&gt;&lt;/p&gt;&lt;p style=&quot;margin: 0px ; margin-left: 4px&quot;&gt;+message: string&amp;nbsp;&lt;span&gt;&amp;nbsp;&lt;/span&gt;&lt;/p&gt;&lt;hr size=&quot;1&quot;&gt;&lt;p style=&quot;margin: 0px 0px 0px 4px&quot;&gt;+getDate() : date&lt;/p&gt;&lt;div&gt;&amp;nbsp;+setDate()&lt;/div&gt;&lt;p style=&quot;margin: 0px 0px 0px 4px&quot;&gt;+getEmployeeID() : int&lt;/p&gt;&lt;p style=&quot;margin: 0px 0px 0px 4px&quot;&gt;+setEmployeeID()&lt;/p&gt;&lt;p style=&quot;margin: 0px 0px 0px 4px&quot;&gt;+getMessage() : text&lt;/p&gt;&lt;p style=&quot;margin: 0px 0px 0px 4px&quot;&gt;+setMessage()&lt;/p&gt;&lt;p style=&quot;margin: 0px ; margin-left: 4px&quot;&gt;&lt;br&gt;&lt;/p&gt;" style="verticalAlign=top;align=left;overflow=fill;fontSize=12;fontFamily=Helvetica;html=1;" parent="1" vertex="1">
          <mxGeometry x="730" y="-170" width="160" height="180" as="geometry" />
        </mxCell>
        <mxCell id="faD0mFVA-UTQUyw-2g-3-17" value="&lt;p style=&quot;margin: 0px ; margin-top: 4px ; text-align: center&quot;&gt;&lt;b&gt;Hours&lt;/b&gt;&lt;/p&gt;&lt;hr size=&quot;1&quot;&gt;&lt;p style=&quot;margin: 0px ; margin-left: 4px&quot;&gt;+workDate: date&lt;span&gt;&lt;br&gt;&lt;/span&gt;&lt;/p&gt;&lt;p style=&quot;margin: 0px ; margin-left: 4px&quot;&gt;&lt;span&gt;+employeeID: int&amp;nbsp;&lt;/span&gt;&lt;/p&gt;&lt;p style=&quot;margin: 0px ; margin-left: 4px&quot;&gt;+inHour: int&lt;/p&gt;&lt;p style=&quot;margin: 0px ; margin-left: 4px&quot;&gt;+outHour: int&lt;/p&gt;&lt;hr size=&quot;1&quot;&gt;&lt;p style=&quot;margin: 0px 0px 0px 4px&quot;&gt;+getWorkDate(): date&lt;/p&gt;&lt;div&gt;&amp;nbsp;+setWorkDate()&lt;/div&gt;&lt;p style=&quot;margin: 0px 0px 0px 4px&quot;&gt;+getEmployeeID(): int&lt;/p&gt;&lt;p style=&quot;margin: 0px 0px 0px 4px&quot;&gt;+setEmployeeID()&lt;/p&gt;&lt;p style=&quot;margin: 0px 0px 0px 4px&quot;&gt;+getInHour(): int&lt;/p&gt;&lt;p style=&quot;margin: 0px 0px 0px 4px&quot;&gt;+setInHour()&lt;/p&gt;&lt;p style=&quot;margin: 0px 0px 0px 4px&quot;&gt;+getOutHour(): int&lt;/p&gt;&lt;p style=&quot;margin: 0px 0px 0px 4px&quot;&gt;+setOutHour()&lt;/p&gt;&lt;p style=&quot;margin: 0px ; margin-left: 4px&quot;&gt;&lt;br&gt;&lt;/p&gt;" style="verticalAlign=top;align=left;overflow=fill;fontSize=12;fontFamily=Helvetica;html=1;" parent="1" vertex="1">
          <mxGeometry x="110" y="-180" width="160" height="220" as="geometry" />
        </mxCell>
        <mxCell id="faD0mFVA-UTQUyw-2g-3-19" value="&lt;p style=&quot;margin: 0px ; margin-top: 4px ; text-align: center&quot;&gt;&lt;b&gt;Supplier&lt;/b&gt;&lt;/p&gt;&lt;hr size=&quot;1&quot;&gt;&lt;p style=&quot;margin: 0px ; margin-left: 4px&quot;&gt;+supplierName: string&amp;nbsp;&lt;br&gt;&lt;/p&gt;&lt;p style=&quot;margin: 0px ; margin-left: 4px&quot;&gt;+supplierEmail: string&amp;nbsp;&lt;/p&gt;&lt;hr size=&quot;1&quot;&gt;&lt;p style=&quot;margin: 0px 0px 0px 4px&quot;&gt;+getSupplierName() : string&amp;nbsp;&lt;/p&gt;&lt;p style=&quot;margin: 0px 0px 0px 4px&quot;&gt;+setSupplierName()&lt;br&gt;&lt;/p&gt;&lt;p style=&quot;margin: 0px 0px 0px 4px&quot;&gt;+getSupplierEmail() : string&amp;nbsp;&lt;/p&gt;&lt;p style=&quot;margin: 0px 0px 0px 4px&quot;&gt;+setSupplierEmail()&lt;/p&gt;" style="verticalAlign=top;align=left;overflow=fill;fontSize=12;fontFamily=Helvetica;html=1;" parent="1" vertex="1">
          <mxGeometry x="1110" y="-350" width="160" height="140" as="geometry" />
        </mxCell>
        <mxCell id="faD0mFVA-UTQUyw-2g-3-22" value="&lt;p style=&quot;margin: 0px ; margin-top: 4px ; text-align: center&quot;&gt;&lt;b&gt;Product&lt;/b&gt;&lt;/p&gt;&lt;hr size=&quot;1&quot;&gt;&lt;p style=&quot;margin: 0px 0px 0px 4px&quot;&gt;+productID: int&amp;nbsp;&lt;br&gt;&lt;/p&gt;&lt;p style=&quot;margin: 0px 0px 0px 4px&quot;&gt;+productName: string&lt;/p&gt;&lt;p style=&quot;margin: 0px 0px 0px 4px&quot;&gt;+productCost: int&amp;nbsp;&amp;nbsp;&lt;/p&gt;&lt;hr size=&quot;1&quot;&gt;&lt;p style=&quot;margin: 0px 0px 0px 4px&quot;&gt;+getProductID(): int&lt;/p&gt;&lt;p style=&quot;margin: 0px 0px 0px 4px&quot;&gt;+setProductID()&lt;/p&gt;&lt;p style=&quot;margin: 0px 0px 0px 4px&quot;&gt;+getProductName(): string&amp;nbsp;&lt;/p&gt;&lt;p style=&quot;margin: 0px 0px 0px 4px&quot;&gt;+setProductName()&lt;/p&gt;&lt;p style=&quot;margin: 0px 0px 0px 4px&quot;&gt;+getProductCost(): int&amp;nbsp;&lt;/p&gt;&lt;p style=&quot;margin: 0px 0px 0px 4px&quot;&gt;+setProductCost() &lt;br&gt;&lt;/p&gt;" style="verticalAlign=top;align=left;overflow=fill;fontSize=12;fontFamily=Helvetica;html=1;" parent="1" vertex="1">
          <mxGeometry x="220" y="100" width="160" height="180" as="geometry" />
        </mxCell>
        <mxCell id="GsssvNLd7iTSp989wkbY-3" style="edgeStyle=orthogonalEdgeStyle;rounded=0;orthogonalLoop=1;jettySize=auto;html=1;exitX=0.5;exitY=0;exitDx=0;exitDy=0;entryX=0.005;entryY=0.069;entryDx=0;entryDy=0;entryPerimeter=0;" parent="1" source="GsssvNLd7iTSp989wkbY-2" target="faD0mFVA-UTQUyw-2g-3-2" edge="1">
          <mxGeometry relative="1" as="geometry" />
        </mxCell>
        <mxCell id="gz_htRSJHswuMN24tjL3-15" style="edgeStyle=orthogonalEdgeStyle;rounded=0;orthogonalLoop=1;jettySize=auto;html=1;exitX=0.5;exitY=1;exitDx=0;exitDy=0;entryX=0.5;entryY=0;entryDx=0;entryDy=0;startArrow=none;startFill=0;endArrow=open;endFill=0;targetPerimeterSpacing=0;" parent="1" source="GsssvNLd7iTSp989wkbY-2" target="gz_htRSJHswuMN24tjL3-14" edge="1">
          <mxGeometry relative="1" as="geometry" />
        </mxCell>
        <mxCell id="GsssvNLd7iTSp989wkbY-2" value="&lt;p style=&quot;margin: 0px ; margin-top: 4px ; text-align: center&quot;&gt;&lt;b&gt;Chat System&lt;br&gt;&lt;/b&gt;&lt;/p&gt;&lt;hr size=&quot;1&quot;&gt;&lt;div&gt;+chatMessages: string&lt;/div&gt;&lt;div&gt;&lt;br&gt;&lt;/div&gt;&lt;hr size=&quot;1&quot;&gt;&lt;div&gt;+getMessage()&lt;/div&gt;&lt;div&gt;+notifyUsers()&lt;br&gt;&lt;/div&gt;" style="verticalAlign=top;align=left;overflow=fill;fontSize=12;fontFamily=Helvetica;html=1;" parent="1" vertex="1">
          <mxGeometry x="-380" y="-440" width="160" height="120" as="geometry" />
        </mxCell>
        <mxCell id="gz_htRSJHswuMN24tjL3-11" style="edgeStyle=orthogonalEdgeStyle;rounded=0;orthogonalLoop=1;jettySize=auto;html=1;exitX=0.5;exitY=1;exitDx=0;exitDy=0;endArrow=none;endFill=0;targetPerimeterSpacing=0;dashed=1;startArrow=block;startFill=0;" parent="1" source="gz_htRSJHswuMN24tjL3-7" target="gz_htRSJHswuMN24tjL3-10" edge="1">
          <mxGeometry relative="1" as="geometry" />
        </mxCell>
        <mxCell id="gz_htRSJHswuMN24tjL3-7" value="&lt;p style=&quot;margin: 0px ; margin-top: 4px ; text-align: center&quot;&gt;&lt;b&gt;&amp;lt;&amp;lt;Interface&amp;gt;&amp;gt;&lt;/b&gt;&lt;/p&gt;&lt;p style=&quot;margin: 0px ; margin-top: 4px ; text-align: center&quot;&gt;&lt;b&gt;Chat Reader&lt;br&gt;&lt;/b&gt;&lt;/p&gt;&lt;hr size=&quot;1&quot;&gt;&lt;div&gt;+update(message)&lt;/div&gt;" style="verticalAlign=top;align=left;overflow=fill;fontSize=12;fontFamily=Helvetica;html=1;" parent="1" vertex="1">
          <mxGeometry x="-573" y="-420" width="160" height="80" as="geometry" />
        </mxCell>
        <mxCell id="gz_htRSJHswuMN24tjL3-8" value="" style="endArrow=open;startArrow=diamondThin;endFill=0;startFill=0;html=1;verticalAlign=bottom;labelBackgroundColor=none;strokeWidth=1;rounded=0;targetPerimeterSpacing=0;exitX=0;exitY=0.5;exitDx=0;exitDy=0;entryX=1;entryY=0.5;entryDx=0;entryDy=0;" parent="1" source="GsssvNLd7iTSp989wkbY-2" target="gz_htRSJHswuMN24tjL3-7" edge="1">
          <mxGeometry width="160" relative="1" as="geometry">
            <mxPoint x="-550" y="-500" as="sourcePoint" />
            <mxPoint x="-390" y="-500" as="targetPoint" />
          </mxGeometry>
        </mxCell>
        <mxCell id="gz_htRSJHswuMN24tjL3-13" style="edgeStyle=orthogonalEdgeStyle;rounded=0;orthogonalLoop=1;jettySize=auto;html=1;exitX=0;exitY=0.5;exitDx=0;exitDy=0;entryX=0.5;entryY=0;entryDx=0;entryDy=0;dashed=1;startArrow=open;startFill=0;endArrow=none;endFill=0;targetPerimeterSpacing=0;" parent="1" source="gz_htRSJHswuMN24tjL3-10" target="faD0mFVA-UTQUyw-2g-3-2" edge="1">
          <mxGeometry relative="1" as="geometry" />
        </mxCell>
        <mxCell id="gz_htRSJHswuMN24tjL3-10" value="&lt;p style=&quot;margin: 0px ; margin-top: 4px ; text-align: center&quot;&gt;&lt;b&gt;Concrete Reader&lt;br&gt;&lt;/b&gt;&lt;/p&gt;&lt;hr size=&quot;1&quot;&gt;&lt;div&gt;+chatMessages: string&lt;/div&gt;&lt;div&gt;&lt;br&gt;&lt;/div&gt;&lt;hr size=&quot;1&quot;&gt;&lt;div&gt;+writeMessage()&lt;/div&gt;&lt;div&gt;+readMessage()&lt;/div&gt;&lt;div&gt;&lt;br&gt;&lt;/div&gt;" style="verticalAlign=top;align=left;overflow=fill;fontSize=12;fontFamily=Helvetica;html=1;" parent="1" vertex="1">
          <mxGeometry x="-573" y="-300" width="160" height="120" as="geometry" />
        </mxCell>
        <mxCell id="gz_htRSJHswuMN24tjL3-14" value="&lt;p style=&quot;margin: 0px ; margin-top: 4px ; text-align: center&quot;&gt;&lt;b&gt;Singleton&lt;br&gt;&lt;/b&gt;&lt;/p&gt;&lt;hr size=&quot;1&quot;&gt;&lt;div&gt;&amp;nbsp;- instance: Singleton&lt;br&gt;&lt;/div&gt;&lt;div&gt;&lt;br&gt;&lt;/div&gt;&lt;hr size=&quot;1&quot;&gt;&lt;div&gt;&amp;nbsp;-Singleton()&lt;/div&gt;&lt;div&gt;&amp;nbsp;+getInstance(): Singleton&lt;br&gt;&lt;/div&gt;" style="verticalAlign=top;align=left;overflow=fill;fontSize=12;fontFamily=Helvetica;html=1;" parent="1" vertex="1">
          <mxGeometry x="-355" y="-280" width="160" height="120" as="geometry" />
        </mxCell>
        <mxCell id="gz_htRSJHswuMN24tjL3-16" style="edgeStyle=orthogonalEdgeStyle;rounded=0;orthogonalLoop=1;jettySize=auto;html=1;exitX=1;exitY=0.5;exitDx=0;exitDy=0;entryX=1.004;entryY=0.122;entryDx=0;entryDy=0;entryPerimeter=0;startArrow=none;startFill=0;endArrow=open;endFill=0;targetPerimeterSpacing=0;" parent="1" source="gz_htRSJHswuMN24tjL3-14" target="gz_htRSJHswuMN24tjL3-14" edge="1">
          <mxGeometry relative="1" as="geometry" />
        </mxCell>
      </root>
    </mxGraphModel>
  </diagram>
</mxfile>
